{"title":"Mars.Needs.Moms.DVDRiP.XViD.AC3-TA","uid":6464891,"size":1558394714,"categoryP":"video","categoryS":"movies","magnet":"?xt=urn:btih:b167e123e0dd29b61bb166e964517e97c155fd78&amp;dn=Mars.Needs.Moms.DVDRiP.XViD.AC3-TA&amp;tr=udp%3A%2F%2Ftracker.openbittorrent.com%3A80&amp;tr=udp%3A%2F%2Fopen.demonii.com%3A1337&amp;tr=udp%3A%2F%2Ftracker.coppersurfer.tk%3A6969&amp;tr=udp%3A%2F%2Fexodus.desync.com%3A6969","seeders":0,"leechers":1,"uploader":".BONE.","files":108,"time":1307927219,"description":"\nPlot:\nA young boy named Milo gains a deeper appreciation for his mom after Martians come to Earth to take her away.\n &lt;a href=&quot;\nhttp://www.imdb.com/title/tt1305591/&quot; rel=&quot;nofollow&quot; target=&quot;_NEW&quot;&gt;\nhttp://www.imdb.com/title/tt1305591/&lt;/a&gt;\n\nGeneral\nComplete name : Mars.Needs.Moms.DVDRiP.XViD.AC3-TA.avi\nFormat : AVI\nFormat/Info : Audio Video Interleave\nFile size : 1.43 GiB\nDuration : 1h 24mn\nOverall bit rate : 2 416 Kbps\nWriting library : VirtualDub build 32661/release\nSource : Mars.Needs.Moms.DVDR-iGNiTiON\n\nVideo\nID : 0\nFormat : MPEG-4 Visual\nFormat profile : AdvancedSimple@L5\nFormat settings, BVOP : Yes\nFormat settings, QPel : No\nFormat settings, GMC : No warppoints\nFormat settings, Matrix : Default (H.263)\nMuxing mode : Packed bitstream\nCodec ID : XVID\nCodec ID/Hint : XviD\nDuration : 1h 24mn\nBit rate : 2 023 Kbps\nWidth : 720 pixels\nHeight : 304 pixels\nDisplay aspect ratio : 2.35:1\nFrame rate : 25.000 fps\nResolution : 24 bits\nColorimetry : 4:2:0\nScan type : Progressive\nBits/(Pixel*Frame) : 0.370\nStream size : 1.19 GiB (84%)\nWriting library : XviD 1.1.2 (UTC 2006-11-01)\n\nAudio\nID : 1\nFormat : AC-3\nFormat/Info : Audio Coding 3\nCodec ID : 2000\nDuration : 1h 24mn\nBit rate mode : Constant\nBit rate : 384 Kbps\nChannel(s) : 6 channels\nChannel positions : Front: L C R, Surround: L R, LFE\nSampling rate : 48.0 KHz\nStream size : 232 MiB (16%)\nAlignment : Aligned on interleaves\nInterleave, duration : 40 ms (1.00 video frame)\nInterleave, preload duration : 512 ms\n\nGreets:\nall p2p groups\n &lt;a href=&quot;\nhttp://www.shotpix.com/images/62060410065871371118.png&quot; rel=&quot;nofollow&quot; target=&quot;_NEW&quot;&gt;\nhttp://www.shotpix.com/images/62060410065871371118.png&lt;/a&gt;\n &lt;a href=&quot;\nhttp://www.shotpix.com/images/08486795214319082031.png&quot; rel=&quot;nofollow&quot; target=&quot;_NEW&quot;&gt;\nhttp://www.shotpix.com/images/08486795214319082031.png&lt;/a&gt;\n &lt;a href=&quot;\nhttp://www.shotpix.com/images/20038107730449732893.png&quot; rel=&quot;nofollow&quot; target=&quot;_NEW&quot;&gt;\nhttp://www.shotpix.com/images/20038107730449732893.png&lt;/a&gt;\n &lt;a href=&quot;\nhttp://www.shotpix.com/images/79474558923935971274.png&quot; rel=&quot;nofollow&quot; target=&quot;_NEW&quot;&gt;\nhttp://www.shotpix.com/images/79474558923935971274.png&lt;/a&gt;\n &lt;a href=&quot;\nhttp://www.shotpix.com/images/73439337064215392531.png&quot; rel=&quot;nofollow&quot; target=&quot;_NEW&quot;&gt;\nhttp://www.shotpix.com/images/73439337064215392531.png&lt;/a&gt;","torrent":{"xt":"urn:btih:b167e123e0dd29b61bb166e964517e97c155fd78","amp;dn":"Mars.Needs.Moms.DVDRiP.XViD.AC3-TA","amp;tr":["udp%3A%2F%2Ftracker.openbittorrent.com%3A80","udp%3A%2F%2Fopen.demonii.com%3A1337","udp%3A%2F%2Ftracker.coppersurfer.tk%3A6969","udp%3A%2F%2Fexodus.desync.com%3A6969"],"infoHash":"b167e123e0dd29b61bb166e964517e97c155fd78","infoHashBuffer":{"type":"Buffer","data":[177,103,225,35,224,221,41,182,27,177,102,233,100,81,126,151,193,85,253,120]},"announce":[],"urlList":[]}}